<?xml version="1.0" standalone="no"?>
<!DOCTYPE svg PUBLIC "-//W3C//DTD SVG 20010904//EN"
 "http://www.w3.org/TR/2001/REC-SVG-20010904/DTD/svg10.dtd">
<svg version="1.0" xmlns="http://www.w3.org/2000/svg"
 width="700.000000pt" height="700.000000pt" viewBox="0 0 700.000000 700.000000"
 preserveAspectRatio="xMidYMid meet">
<metadata>
Created by potrace 1.14, written by Peter Selinger 2001-2017
</metadata>
<g transform="translate(0.000000,700.000000) scale(0.100000,-0.100000)"
fill="#000000" stroke="none">
<path d="M2290 6977 c-124 -42 -218 -122 -274 -233 -33 -67 -42 -107 -45 -191
-4 -138 42 -250 143 -346 88 -84 175 -118 305 -121 l94 -2 19 -34 c18 -33 83
-157 178 -335 41 -77 54 -101 154 -287 l47 -87 -30 -58 c-16 -32 -35 -78 -41
-103 -11 -40 -14 -161 -7 -243 2 -26 -3 -30 -93 -66 -610 -247 -1051 -784
-1150 -1401 -28 -178 -30 -378 -4 -550 9 -59 41 -191 48 -198 4 -3 844 -7
1867 -7 1706 0 1862 1 1870 16 4 9 11 29 14 45 8 48 14 75 19 92 3 9 8 42 11
72 3 30 8 63 11 73 3 9 6 84 6 165 0 139 -12 274 -32 352 -5 19 -11 48 -14 63
-16 94 -85 276 -151 402 -207 396 -548 700 -985 880 -80 32 -85 36 -83 62 2
16 3 66 4 113 2 91 -20 184 -61 253 l-20 34 103 194 c57 107 129 241 159 299
50 93 82 153 123 228 12 22 20 24 106 26 115 4 184 28 272 94 208 159 239 462
67 665 -32 39 -133 107 -188 127 -112 42 -259 32 -371 -25 -183 -93 -282 -314
-231 -515 18 -71 29 -94 71 -156 l28 -41 -20 -39 c-12 -21 -40 -75 -64 -119
-23 -44 -62 -116 -85 -160 -23 -44 -59 -111 -80 -150 -79 -148 -107 -201 -118
-222 -11 -20 -13 -21 -59 -6 -66 20 -493 25 -573 7 -30 -8 -62 -13 -70 -14 -9
0 -33 34 -58 83 -23 45 -61 116 -83 157 -22 41 -68 127 -101 190 -34 63 -80
150 -104 193 l-43 78 40 61 c121 189 89 434 -77 587 -46 42 -90 69 -169 101
-16 6 -70 13 -120 15 -72 3 -103 -1 -155 -18z m713 -2827 c144 -54 243 -142
307 -274 148 -302 4 -648 -315 -758 -71 -24 -92 -27 -185 -24 -73 3 -122 10
-160 24 -179 65 -308 205 -355 387 -18 67 -21 199 -6 239 6 14 9 26 6 26 -8 0
42 116 68 156 14 23 45 62 69 87 48 50 162 127 188 127 9 0 20 3 24 8 36 36
264 38 359 2z m1347 0 c89 -30 193 -101 246 -169 47 -59 97 -155 108 -206 3
-16 9 -41 12 -55 10 -48 5 -149 -11 -216 -22 -95 -70 -179 -146 -255 -133
-135 -332 -190 -514 -144 -345 88 -515 470 -350 784 69 130 209 240 357 277
75 19 216 12 298 -16z"/>
<path d="M2798 3907 c37 -45 27 -154 -20 -204 -46 -51 -144 -69 -198 -38 -37
21 -40 19 -40 -32 0 -104 56 -195 151 -248 47 -26 64 -30 134 -30 64 0 89 5
124 23 104 56 155 142 156 262 0 66 -4 82 -31 130 -52 93 -147 150 -250 150
-29 0 -34 -3 -26 -13z"/>
<path d="M4071 3898 c-151 -57 -221 -241 -148 -390 127 -259 516 -179 535 110
2 34 2 62 0 62 -3 0 -20 -7 -37 -16 -63 -32 -149 -15 -198 38 -46 49 -59 144
-27 193 l17 26 -46 -2 c-25 -2 -68 -11 -96 -21z"/>
<path d="M1534 2395 c8 -23 102 -160 170 -250 116 -153 337 -353 552 -499 21
-15 21 -18 20 -423 l-1 -408 -315 -2 c-429 -2 -458 -4 -533 -41 -260 -129
-312 -462 -103 -660 28 -26 80 -61 116 -77 l65 -30 532 -1 c576 -2 590 -1 679
51 93 55 150 124 184 225 22 64 23 75 23 571 l1 506 90 -19 c354 -73 676 -71
1002 5 l60 14 -1 -481 c0 -298 4 -504 10 -541 23 -129 110 -240 232 -298 l68
-32 540 -2 c505 -2 544 -1 599 17 234 75 350 350 239 565 -51 99 -132 169
-236 204 -57 20 -84 21 -432 21 l-371 0 -1 410 0 410 61 42 c177 119 375 300
498 453 59 74 188 264 188 277 0 4 -887 8 -1971 8 -1746 0 -1970 -2 -1965 -15z"/>
</g>
</svg>
